Normalized EMG Linear Envelopes
nRows=212
nColumns=4

endheader
time	 med_gas_r	  soleus_r	 tib_ant_r	
4.42411	  0.078131	  0.122835	  0.187716	
4.45738	  0.080719	  0.127797	  0.206794	
4.49064	  0.082638	  0.134578	  0.230258	
4.5239	  0.083454	  0.143119	  0.257463	
4.55717	  0.083093	  0.152154	  0.284079	
4.59043	  0.082169	  0.160042	  0.305056	
4.6237	  0.081470	  0.166198	  0.317349	
4.65696	  0.081547	  0.171009	  0.322006	
4.69022	  0.082661	  0.175781	  0.322463	
4.72349	  0.084728	  0.180906	  0.322447	
4.75675	  0.087767	  0.185899	  0.324227	
4.79002	  0.092107	  0.191446	  0.326883	
4.82328	  0.097324	  0.197584	  0.330828	
4.85654	  0.102194	  0.203114	  0.337811	
4.88981	  0.106302	  0.206690	  0.348550	
4.92307	  0.110253	  0.207425	  0.361566	
4.95634	  0.114282	  0.205001	  0.374873	
4.9896	  0.117935	  0.199962	  0.387950	
5.02286	  0.120191	  0.193720	  0.398922	
5.05613	  0.120558	  0.187587	  0.405574	
5.08939	  0.119535	  0.182319	  0.408592	
5.12266	  0.117432	  0.178141	  0.409810	
5.15592	  0.115104	  0.175572	  0.410784	
5.18918	  0.113527	  0.175077	  0.410277	
5.22245	  0.113446	  0.176502	  0.408849	
5.25571	  0.115453	  0.179156	  0.407327	
5.28898	  0.120109	  0.181694	  0.405675	
5.32224	  0.127514	  0.183671	  0.403502	
5.3555	  0.137397	  0.185703	  0.401313	
5.38877	  0.149280	  0.188586	  0.398508	
5.42203	  0.162770	  0.193019	  0.394340	
5.4553	  0.176544	  0.198878	  0.389798	
5.48856	  0.187630	  0.204928	  0.385746	
5.52182	  0.192168	  0.209668	  0.382999	
5.55509	  0.189250	  0.212143	  0.381707	
5.58835	  0.182516	  0.212422	  0.383498	
5.62162	  0.177298	  0.210942	  0.388855	
5.65488	  0.177058	  0.208243	  0.397036	
5.68814	  0.183234	  0.205459	  0.406363	
5.72141	  0.194703	  0.203976	  0.414972	
5.75467	  0.208249	  0.204069	  0.423565	
5.78794	  0.221361	  0.205840	  0.434344	
5.8212	  0.232116	  0.208630	  0.447230	
5.85446	  0.239343	  0.211380	  0.462179	
5.88773	  0.243971	  0.213250	  0.477664	
5.92099	  0.247068	  0.213732	  0.491068	
5.95426	  0.250476	  0.213493	  0.499077	
5.98752	  0.255133	  0.212827	  0.501853	
6.02078	  0.259136	  0.211450	  0.501246	
6.05405	  0.260797	  0.209083	  0.499100	
6.08731	  0.259610	  0.206965	  0.497652	
6.12058	  0.254773	  0.206729	  0.496815	
6.15384	  0.246408	  0.208191	  0.496509	
6.1871	  0.235729	  0.210633	  0.498977	
6.22037	  0.223628	  0.213104	  0.505308	
6.25363	  0.212537	  0.215479	  0.512020	
6.2869	  0.204647	  0.218377	  0.514341	
6.32016	  0.200123	  0.222046	  0.512790	
6.35342	  0.198414	  0.225639	  0.509142	
6.38669	  0.200129	  0.227956	  0.505226	
6.41995	  0.204987	  0.228726	  0.503283	
6.45322	  0.211784	  0.228139	  0.503471	
6.48648	  0.217254	  0.226768	  0.504445	
6.51974	  0.218380	  0.225588	  0.503132	
6.55301	  0.215291	  0.225545	  0.498653	
6.58627	  0.210794	  0.226180	  0.493665	
6.61954	  0.206911	  0.226689	  0.487934	
6.6528	  0.203640	  0.226925	  0.479966	
6.68606	  0.201545	  0.227013	  0.469757	
6.71933	  0.201892	  0.226858	  0.458901	
6.75259	  0.204392	  0.226815	  0.450688	
6.78586	  0.209207	  0.226132	  0.447787	
6.81912	  0.215023	  0.224256	  0.451225	
6.85238	  0.219731	  0.221441	  0.459710	
6.88565	  0.222889	  0.217551	  0.471469	
6.91891	  0.225254	  0.213123	  0.484881	
6.95218	  0.227836	  0.208330	  0.501929	
6.98544	  0.230239	  0.202736	  0.525414	
7.0187	  0.230914	  0.196780	  0.556950	
7.05197	  0.230087	  0.191404	  0.597243	
7.08523	  0.229602	  0.187864	  0.644630	
7.1185	  0.231220	  0.187017	  0.695203	
7.15176	  0.235587	  0.189122	  0.743484	
7.18502	  0.240895	  0.193796	  0.780528	
7.21829	  0.245444	  0.199741	  0.800819	
7.25155	  0.249090	  0.206215	  0.801931	
7.28482	  0.250510	  0.212359	  0.785361	
7.31808	  0.248559	  0.217151	  0.756189	
7.35134	  0.244905	  0.219599	  0.718199	
7.38461	  0.242195	  0.219929	  0.674620	
7.41787	  0.242710	  0.218405	  0.630515	
7.45114	  0.246345	  0.215405	  0.592286	
7.4844	  0.251059	  0.211519	  0.561534	
7.51766	  0.255909	  0.207679	  0.535504	
7.55093	  0.261123	  0.204644	  0.510645	
7.58419	  0.266495	  0.203067	  0.489067	
7.61746	  0.268934	  0.203001	  0.475571	
7.65072	  0.265460	  0.203503	  0.472272	
7.68398	  0.258396	  0.204117	  0.476640	
7.71725	  0.251821	  0.204726	  0.486228	
7.75051	  0.246821	  0.204419	  0.498738	
7.78378	  0.241883	  0.203401	  0.514328	
7.81704	  0.236584	  0.202332	  0.533364	
7.8503	  0.231812	  0.201468	  0.553224	
7.88357	  0.229182	  0.201111	  0.570168	
7.91683	  0.228647	  0.201514	  0.579724	
7.9501	  0.229486	  0.204157	  0.580452	
7.98336	  0.231544	  0.209373	  0.572710	
8.01662	  0.235641	  0.216307	  0.557511	
8.04989	  0.241409	  0.223288	  0.538383	
8.08315	  0.248031	  0.228592	  0.518619	
8.11642	  0.255625	  0.230954	  0.501798	
8.14968	  0.263521	  0.230067	  0.489559	
8.18294	  0.271734	  0.226720	  0.481847	
8.21621	  0.280990	  0.223009	  0.477407	
8.24947	  0.292392	  0.220403	  0.473559	
8.28274	  0.303718	  0.218814	  0.469584	
8.316	  0.312484	  0.217307	  0.466609	
8.34926	  0.320216	  0.216059	  0.466098	
8.38253	  0.327153	  0.215626	  0.470548	
8.41579	  0.331400	  0.215790	  0.479398	
8.44906	  0.333515	  0.215713	  0.487578	
8.48232	  0.335865	  0.215265	  0.490221	
8.51558	  0.340736	  0.214370	  0.485061	
8.54885	  0.347001	  0.213070	  0.473259	
8.58211	  0.350574	  0.211385	  0.458457	
8.61538	  0.350772	  0.209793	  0.444423	
8.64864	  0.349664	  0.209304	  0.432385	
8.6819	  0.348285	  0.210064	  0.422581	
8.71517	  0.346369	  0.211598	  0.416028	
8.74843	  0.346168	  0.212729	  0.413242	
8.7817	  0.349245	  0.211560	  0.414970	
8.81496	  0.354556	  0.208369	  0.418893	
8.84822	  0.359954	  0.205112	  0.424173	
8.88149	  0.367944	  0.203632	  0.433982	
8.91475	  0.380504	  0.205533	  0.448663	
8.94802	  0.396494	  0.210599	  0.464993	
8.98128	  0.413984	  0.217748	  0.478203	
9.01454	  0.430312	  0.226005	  0.486303	
9.04781	  0.444423	  0.234655	  0.489742	
9.08107	  0.455757	  0.243317	  0.488329	
9.11434	  0.462470	  0.252007	  0.483407	
9.1476	  0.460984	  0.260603	  0.477898	
9.18086	  0.452101	  0.267360	  0.474252	
9.21413	  0.440115	  0.271839	  0.474083	
9.24739	  0.428571	  0.275729	  0.477155	
9.28066	  0.418028	  0.279750	  0.484325	
9.31392	  0.406932	  0.283404	  0.492679	
9.34718	  0.396279	  0.286373	  0.497790	
9.38045	  0.388731	  0.288707	  0.497662	
9.41371	  0.383189	  0.289614	  0.491921	
9.44698	  0.378786	  0.289407	  0.483550	
9.48024	  0.377092	  0.288007	  0.476640	
9.5135	  0.378440	  0.285536	  0.472466	
9.54677	  0.381512	  0.282356	  0.470898	
9.58003	  0.385292	  0.278464	  0.472153	
9.6133	  0.387634	  0.274418	  0.475913	
9.64656	  0.388278	  0.270768	  0.480161	
9.67982	  0.389405	  0.266775	  0.481896	
9.71309	  0.389559	  0.261702	  0.479638	
9.74635	  0.386035	  0.255169	  0.473257	
9.77962	  0.380412	  0.247079	  0.462668	
9.81288	  0.374274	  0.238110	  0.445351	
9.84614	  0.365829	  0.228393	  0.418518	
9.87941	  0.354317	  0.218601	  0.382406	
9.91267	  0.344131	  0.209434	  0.339158	
9.94594	  0.337821	  0.199949	  0.292280	
9.9792	  0.335797	  0.188998	  0.247124	
10.0125	  0.339182	  0.176858	  0.206737	
10.0457	  0.345920	  0.165261	  0.171777	
10.079	  0.354873	  0.155118	  0.142590	
10.1123	  0.367660	  0.146848	  0.119417	
10.1455	  0.383299	  0.140367	  0.102118	
10.1788	  0.399838	  0.135721	  0.089660	
10.212	  0.416898	  0.132677	  0.080726	
10.2453	  0.432794	  0.130920	  0.074839	
10.2786	  0.446733	  0.130294	  0.071273	
10.3118	  0.457526	  0.130939	  0.069415	
10.3451	  0.462896	  0.133029	  0.068636	
10.3784	  0.461291	  0.136209	  0.067890	
10.4116	  0.453948	  0.140136	  0.066804	
10.4449	  0.441903	  0.144147	  0.065492	
10.4782	  0.427492	  0.147101	  0.064152	
10.5114	  0.413612	  0.147925	  0.062707	
10.5447	  0.402256	  0.146233	  0.060844	
10.578	  0.394215	  0.142624	  0.058431	
10.6112	  0.389238	  0.138265	  0.055691	
10.6445	  0.387911	  0.133616	  0.053007	
10.6777	  0.389545	  0.128302	  0.050423	
10.711	  0.392998	  0.122090	  0.047684	
10.7443	  0.397216	  0.115526	  0.045005	
10.7775	  0.402842	  0.109677	  0.042770	
10.8108	  0.407279	  0.105177	  0.041141	
10.8441	  0.406474	  0.102403	  0.040101	
10.8773	  0.402470	  0.101734	  0.039510	
10.9106	  0.398188	  0.103236	  0.039081	
10.9439	  0.394589	  0.106537	  0.038519	
10.9771	  0.392836	  0.110591	  0.037774	
11.0104	  0.393834	  0.114378	  0.036996	
11.0436	  0.396591	  0.117864	  0.036377	
11.0769	  0.400298	  0.121259	  0.036018	
11.1102	  0.403033	  0.124865	  0.035988	
11.1434	  0.403725	  0.128815	  0.036213	
11.1767	  0.404123	  0.132933	  0.036558	
11.21	  0.406601	  0.135952	  0.036864	
11.2432	  0.408972	  0.136056	  0.036952	
11.2765	  0.409166	  0.133106	  0.036765	
11.3098	  0.409170	  0.128360	  0.036410	
11.343	  0.407909	  0.123456	  0.035950	
11.3763	  0.400910	  0.119178	  0.035375	
11.4096	  0.389146	  0.115908	  0.034813	
11.4428	  0.375616	  0.113285	  0.034434	
